<?xml version="1.0" encoding="UTF-8"?>
<svg width="420px" height="420px" viewBox="0 0 420 420" version="1.1" xmlns="http://www.w3.org/2000/svg" xmlns:xlink="http://www.w3.org/1999/xlink">
    <!-- Generator: Sketch 46.2 (44496) - http://www.bohemiancoding.com/sketch -->
    <title>server-russian-router</title>
    <desc>Created with Sketch.</desc>
    <defs>
        <linearGradient x1="20.1538086%" y1="79.7802734%" x2="79.7033691%" y2="20.7800293%" id="linearGradient-1">
            <stop stop-color="#FF7D7D" offset="0%"></stop>
            <stop stop-color="#E52222" offset="100%"></stop>
        </linearGradient>
        <linearGradient x1="20.357666%" y1="79.8303223%" x2="79.364624%" y2="20.8416748%" id="linearGradient-2">
            <stop stop-color="#47B7FF" offset="0%"></stop>
            <stop stop-color="#3E97FF" offset="100%"></stop>
        </linearGradient>
        <linearGradient x1="74.4763184%" y1="24.7009277%" x2="20.0463867%" y2="81.1547852%" id="linearGradient-3">
            <stop stop-color="#E8E8E8" offset="0%"></stop>
            <stop stop-color="#FFFFFF" offset="100%"></stop>
        </linearGradient>
        <linearGradient x1="50%" y1="100%" x2="50%" y2="0%" id="linearGradient-4">
            <stop stop-color="#6F74D0" offset="0%"></stop>
            <stop stop-color="#656AC8" offset="100%"></stop>
        </linearGradient>
        <linearGradient x1="50%" y1="0%" x2="50%" y2="100%" id="linearGradient-5">
            <stop stop-color="#A8DEFF" offset="0%"></stop>
            <stop stop-color="#ADE0FF" offset="100%"></stop>
        </linearGradient>
        <linearGradient x1="50%" y1="58.0477628%" x2="50%" y2="3.061617e-15%" id="linearGradient-6">
            <stop stop-color="#E1F0FF" stop-opacity="0" offset="0%"></stop>
            <stop stop-color="#6EAFFC" offset="100%"></stop>
        </linearGradient>
        <linearGradient x1="50%" y1="78.6432065%" x2="50%" y2="3.2099268%" id="linearGradient-7">
            <stop stop-color="#FFFFFF" stop-opacity="0" offset="0%"></stop>
            <stop stop-color="#BABABA" offset="100%"></stop>
        </linearGradient>
        <linearGradient x1="50%" y1="3.5473704%" x2="50%" y2="71.2037029%" id="linearGradient-8">
            <stop stop-color="#599F48" offset="0%"></stop>
            <stop stop-color="#7BC55C" stop-opacity="0" offset="100%"></stop>
        </linearGradient>
        <linearGradient x1="50%" y1="0%" x2="50%" y2="100%" id="linearGradient-9">
            <stop stop-color="#529E51" offset="0%"></stop>
            <stop stop-color="#7CC65C" offset="100%"></stop>
        </linearGradient>
    </defs>
    <g id="Page-1" stroke="none" stroke-width="1" fill="none" fill-rule="evenodd">
        <g id="server-russian-router">
            <path d="M101.71644,176.077061 L274.427927,219.282162 L274.427927,219.282162 C276.577558,219.819909 278.255811,221.49866 278.79292,223.648451 L321.925195,396.286464 L321.925195,396.286464 C322.326802,397.893909 321.349279,399.522567 319.741834,399.924175 C319.264145,400.043522 318.764424,400.04346 318.286764,399.923995 L145.684336,356.755235 L145.684336,356.755235 C143.535712,356.217853 141.857867,354.540507 141.319847,352.392041 L98.0782619,179.716139 L98.0782619,179.716139 C97.6757797,178.108914 98.6524171,176.479724 100.259643,176.077242 C100.737851,175.957488 101.238202,175.957426 101.71644,176.077061 Z" id="Red" fill="url(#linearGradient-1)" transform="translate(210.000000, 288.000000) rotate(-45.000000) translate(-210.000000, -288.000000) "></path>
            <path d="M101.71644,98.0770614 L274.427927,141.282162 L274.427927,141.282162 C276.577558,141.819909 278.255811,143.49866 278.79292,145.648451 L321.925195,318.286464 L321.925195,318.286464 C322.326802,319.893909 321.349279,321.522567 319.741834,321.924175 C319.264145,322.043522 318.764424,322.04346 318.286764,321.923995 L145.684336,278.755235 L145.684336,278.755235 C143.535712,278.217853 141.857867,276.540507 141.319847,274.392041 L98.0782619,101.716139 L98.0782619,101.716139 C97.6757797,100.108914 98.6524171,98.4797238 100.259643,98.0772416 C100.737851,97.9574884 101.238202,97.9574265 101.71644,98.0770614 Z" id="Blue" fill="url(#linearGradient-2)" transform="translate(210.000000, 210.000000) rotate(-45.000000) translate(-210.000000, -210.000000) "></path>
            <path d="M101.71644,20.0770614 L274.427927,63.2821617 L274.427927,63.2821617 C276.577558,63.8199085 278.255811,65.4986599 278.79292,67.6484511 L321.925195,240.286464 L321.925195,240.286464 C322.326802,241.893909 321.349279,243.522567 319.741834,243.924175 C319.264145,244.043522 318.764424,244.04346 318.286764,243.923995 L145.684336,200.755235 L145.684336,200.755235 C143.535712,200.217853 141.857867,198.540507 141.319847,196.392041 L98.0782619,23.7161395 L98.0782619,23.7161395 C97.6757797,22.1089139 98.6524171,20.4797238 100.259643,20.0772416 C100.737851,19.9574884 101.238202,19.9574265 101.71644,20.0770614 Z" id="White" fill="url(#linearGradient-3)" transform="translate(210.000000, 132.000000) rotate(-45.000000) translate(-210.000000, -132.000000) "></path>
            <path d="M115.040099,248.989064 L206.966574,193.851727 L206.966574,193.851727 C208.866838,192.711952 211.240598,192.712304 213.140524,193.852643 L305.003645,248.989064 L213.139251,304.095335 L213.139251,304.095335 C211.239957,305.234656 208.867479,305.235008 206.967848,304.096251 L115.040099,248.989064 Z" id="Down" fill="url(#linearGradient-4)"></path>
            <path d="M115.040099,170.989064 L206.966574,115.851727 L206.966574,115.851727 C208.866838,114.711952 211.240598,114.712304 213.140524,115.852643 L305.003645,170.989064 L213.139251,226.095335 L213.139251,226.095335 C211.239957,227.234656 208.867479,227.235008 206.967848,226.096251 L115.040099,170.989064 Z" id="Up" fill="url(#linearGradient-5)"></path>
            <path d="M367,210.994583 L367,287.005527 C367.284828,287.81828 367.219377,288.747018 366.741538,289.543148 C366.488152,289.965316 366.134752,290.318629 365.712521,290.57191 L213.139251,382.095335 C211.239957,383.234656 208.867479,383.235008 206.967848,382.096251 L54.291128,290.572368 L54.291128,290.572368 C53.0494109,289.828006 52.5403901,288.327231 53,287.012197 L53,210.984755 C53.2226906,211.62616 53.6632352,212.19597 54.291128,212.572368 L54.291128,212.572368 L206.967848,304.096251 C208.867479,305.235008 211.239957,305.234656 213.139251,304.095335 L365.712521,212.57191 C366.134752,212.318629 366.488152,211.965316 366.741538,211.543148 C366.847894,211.365948 366.933819,211.18218 367,210.994583 Z" id="Down-Grad" fill="url(#linearGradient-6)" opacity="0.5"></path>
            <path d="M367,132.994583 L367,209.005527 C367.284828,209.81828 367.219377,210.747018 366.741538,211.543148 C366.488152,211.965316 366.134752,212.318629 365.712521,212.57191 L213.139251,304.095335 C211.239957,305.234656 208.867479,305.235008 206.967848,304.096251 L54.291128,212.572368 L54.291128,212.572368 C53.0494109,211.828006 52.5403901,210.327231 53,209.012197 L53,132.984755 C53.2226906,133.62616 53.6632352,134.19597 54.291128,134.572368 L54.291128,134.572368 L206.967848,226.096251 C208.867479,227.235008 211.239957,227.234656 213.139251,226.095335 L365.712521,134.57191 C366.134752,134.318629 366.488152,133.965316 366.741538,133.543148 C366.847894,133.365948 366.933819,133.18218 367,132.994583 Z" id="Up-Grad" fill="url(#linearGradient-7)" opacity="0.400000006"></path>
            <path d="M180.080198,209.978128 L206.966574,193.851727 L206.966574,193.851727 C208.866838,192.711952 211.240598,192.712304 213.140524,193.852643 L240.007291,209.978128 L213.139251,226.095335 C211.239957,227.234656 208.867479,227.235008 206.967848,226.096251 L180.080198,209.978128 Z" id="Center" fill="#B8AEFF"></path>
            <path d="M118,57 L302,57 L302,130.329567 L302,130.329567 C302,131.368118 301.462857,132.332795 300.580018,132.879771 L213.160036,187.042152 L213.160036,187.042152 C211.224074,188.241606 208.775926,188.241606 206.839964,187.042152 L119.419982,132.879771 L119.419982,132.879771 C118.537143,132.332795 118,131.368118 118,130.329567 L118,57 Z" id="Node-Grad" fill="url(#linearGradient-8)" opacity="0.400000006"></path>
            <path d="M206.924763,1.85456855 C208.824991,0.714815051 211.198707,0.715167337 213.098597,1.85548482 L300.673164,54.4179073 L300.673164,54.4179073 C302.093779,55.2705627 302.5542,57.1134118 301.701545,58.534026 C301.448159,58.9561942 301.094759,59.3095068 300.672528,59.5627884 L213.097324,112.096123 C211.198066,113.235422 208.825632,113.235774 206.926036,112.097038 L119.291128,59.5632461 L119.291128,59.5632461 C117.87005,58.711364 117.408626,56.8687656 118.260508,55.4476876 C118.513974,55.0248648 118.867731,54.6710198 119.290492,54.417449 L206.924763,1.85456855 Z" id="Node-Plane" fill="url(#linearGradient-9)"></path>
            <path d="M221.437042,39.5419686 C220.759083,39.0888753 219.403164,38.8623287 218.499218,39.0888753 L190.024916,43.6198077 C189.572943,43.6198077 189.12097,43.8463544 188.668997,44.072901 C188.668997,44.072901 188.44301,44.072901 188.44301,44.072901 C188.217024,44.2994476 187.765051,44.5259942 187.765051,44.7525408 L180.081509,62.1966306 C179.855522,62.8762704 180.081509,63.5559103 180.985455,64.0090035 L209.007784,80.7734534 C209.459757,81 209.91173,81 210.589689,81 C211.041662,81 211.493635,80.7734534 211.719622,80.3203601 L216.239352,70.1257622 C216.465339,69.4461224 216.239352,68.7664825 215.335406,68.3133893 L202.228188,60.3842576 C201.550228,59.9311644 201.098255,59.2515245 201.324242,58.5718846 L203.358121,54.2674989 C203.584107,54.0409522 203.810094,53.587859 204.262067,53.3613124 C204.71404,53.1347658 205.166013,52.9082191 205.617986,52.9082191 L212.849555,51.775486 C213.979487,51.5489394 215.10942,51.775486 215.787379,52.2285793 L228.894598,60.157711 C229.572557,60.6108042 230.70249,60.8373508 231.832423,60.6108042 L248.781412,57.8922448 C249.233385,57.8922448 249.685358,57.6656982 249.911344,57.2126049 C250.137331,56.9860583 249.911344,56.5329651 249.459371,56.3064184 L221.437042,39.5419686 Z" id="Node-Image" fill="#FFFFFF"></path>
        </g>
    </g>
</svg>